<svg width="36" height="21" viewBox="0 0 36 21" fill="none" xmlns="http://www.w3.org/2000/svg">
<path d="M26.1207 6.24633L29.0183 0.973412C29.1818 0.67781 29.0829 0.302316 28.8053 0.130546C28.5277 -0.0412213 28.1665 0.0586413 28.0068 0.354244L25.0712 5.69507C22.8315 4.62052 20.3104 4.02132 17.5991 4.02132C14.8879 4.02132 12.3668 4.62052 10.1271 5.69507L7.19147 0.354244C7.02796 0.0586413 6.67052 -0.0412213 6.38913 0.130546C6.10773 0.302316 6.01267 0.67781 6.17618 0.973412L9.07375 6.24633C4.07716 9.09052 0.692859 14.4034 0.133881 20.623H35.0644C34.5054 14.4034 31.1211 9.09052 26.1207 6.24633ZM9.57949 15.47C8.76954 15.47 8.1155 14.7789 8.1155 13.932C8.1155 13.0812 8.77334 12.3941 9.57949 12.3941C10.3894 12.3941 11.0435 13.0852 11.0435 13.932C11.0473 14.7789 10.3894 15.47 9.57949 15.47ZM25.615 15.47C24.805 15.47 24.151 14.7789 24.151 13.932C24.151 13.0812 24.8088 12.3941 25.615 12.3941C26.4249 12.3941 27.079 13.0852 27.079 13.932C27.0828 14.7789 26.4249 15.47 25.615 15.47Z" fill="#7C8B9C"/>
</svg>
