<svg width="31" height="33" viewBox="0 0 31 33" fill="none" xmlns="http://www.w3.org/2000/svg">
<g clip-path="url(#clip0)">
<path d="M28.6191 23.8351C28.8298 23.4519 28.9608 23.0201 28.9608 22.6323V9.17246C28.9608 8.78471 28.83 8.353 28.6192 7.96976L15.5315 15.9024L28.6191 23.8351Z" fill="#7C8B9C"/>
<path d="M16.6949 31.4769L27.7982 24.747C28.1181 24.5532 28.4088 24.2184 28.6195 23.8351L15.5319 15.9024L2.44425 23.8352C2.655 24.2184 2.94579 24.5533 3.26555 24.747L14.3689 31.4769C15.0085 31.8647 16.0553 31.8647 16.6949 31.4769Z" fill="#7C8B9C"/>
<path d="M28.6192 7.96956C28.4084 7.58623 28.1176 7.25146 27.7978 7.05758L16.6945 0.327705C16.0549 -0.0600507 15.0081 -0.0600507 14.3685 0.327705L3.26515 7.05758C2.62545 7.44525 2.10215 8.39694 2.10215 9.17236V22.6322C2.10215 23.02 2.23302 23.4518 2.44385 23.835L15.5315 15.9023L28.6192 7.96956Z" fill="#7C8B9C"/>
<path d="M15.5315 25.3013C10.5949 25.3013 6.57863 21.0849 6.57863 15.9023C6.57863 10.7197 10.5949 6.5033 15.5315 6.5033C18.717 6.5033 21.6879 8.30293 23.2846 11.1998L19.41 13.5537C18.6109 12.1036 17.1246 11.2028 15.5315 11.2028C13.0632 11.2028 11.0551 13.3109 11.0551 15.9023C11.0551 18.4936 13.0632 20.6018 15.5315 20.6018C17.1248 20.6018 18.611 19.701 19.4103 18.2507L23.2849 20.6044C21.6881 23.5016 18.7172 25.3013 15.5315 25.3013Z" fill="white"/>
<path d="M24.4843 15.3801H23.4895V14.3358H22.4949V15.3801H21.5V16.4244H22.4949V17.4688H23.4895V16.4244H24.4843V15.3801Z" fill="white"/>
<path d="M28.2147 15.3801H27.2199V14.3358H26.2252V15.3801H25.2304V16.4244H26.2252V17.4688H27.2199V16.4244H28.2147V15.3801Z" fill="white"/>
</g>
<defs>
<clipPath id="clip0">
<rect width="30.5104" height="32.0513" fill="white" transform="translate(0.195251 0.0368881)"/>
</clipPath>
</defs>
</svg>
