<svg width="32" height="33" viewBox="0 0 32 33" fill="none" xmlns="http://www.w3.org/2000/svg">
<g clip-path="url(#clip0)">
<path d="M29.4576 9.51227C29.4576 8.98201 29.3501 8.50389 29.1266 8.10399C28.9115 7.70412 28.5887 7.37379 28.1585 7.113C24.5836 4.9484 21.0005 2.78384 17.4256 0.61925C16.4574 0.0368054 15.5306 0.0541989 14.5707 0.645322C13.1473 1.52335 6.01415 5.81771 3.89573 7.113C3.01855 7.64326 2.59653 8.46043 2.59653 9.52099V22.5954C2.59653 23.117 2.7041 23.5777 2.91098 23.9776C3.12615 24.3862 3.45716 24.7339 3.89573 25.0034C6.02245 26.2987 13.1473 30.5843 14.5707 31.471C15.5306 32.0621 16.4656 32.0881 17.4256 31.4971C21.0005 29.3238 24.5836 27.168 28.1585 25.0034C28.6053 24.7339 28.928 24.3949 29.1432 23.9776C29.3501 23.5777 29.4576 23.117 29.4576 22.5954V9.51227Z" fill="#7C8B9C"/>
<path d="M19.892 18.336C19.1307 19.7529 17.6826 20.7179 16.0193 20.7179C14.3643 20.7179 12.9244 19.7703 12.1631 18.362C11.7907 17.6753 11.5756 16.8929 11.5756 16.0497C11.5756 13.4678 13.5616 11.3815 16.0193 11.3815C17.6577 11.3815 19.0894 12.3203 19.8589 13.7112L23.7399 11.3641C22.1925 8.56495 19.3128 6.67854 16.011 6.67854C11.0791 6.67854 7.09048 10.8773 7.09048 16.0497C7.09048 17.7448 7.52076 19.3444 8.27382 20.7179C9.81297 23.5257 12.7093 25.4208 16.0193 25.4208C19.3376 25.4208 22.2339 23.5171 23.7731 20.6918L19.892 18.336ZM24.7991 13.8329H23.9137V18.3273H24.7991V13.8329ZM26.7603 13.8329H25.8749V18.3273H26.7603V13.8329Z" fill="white"/>
<path d="M27.4809 14.589H23.2027V15.5192H27.4809V14.589ZM27.4809 16.6406H23.2027V17.5708H27.4809V16.6406Z" fill="white"/>
</g>
<defs>
<clipPath id="clip0">
<rect width="30.5103" height="32.0513" fill="white" transform="translate(0.772385 0.0368881)"/>
</clipPath>
</defs>
</svg>
