<svg width="28" height="33" viewBox="0 0 28 33" fill="none" xmlns="http://www.w3.org/2000/svg">
<path d="M0.789046 0.0370102C0.508634 0.0370102 0.299701 0.277062 0.324582 0.570458L2.68861 28.4262C2.71349 28.7196 2.95485 29.0241 3.22516 29.103L13.2569 32.029C13.5271 32.1078 13.9692 32.1078 14.2395 32.0292L24.3017 29.0983C24.572 29.0196 24.8136 28.7151 24.8385 28.4218L27.2064 0.570458C27.2315 0.277062 27.0223 0.0370102 26.7419 0.0370102H0.789046ZM22.1719 6.42564C22.1496 6.68733 22.111 7.14161 22.0861 7.43501L22.0238 8.16588C21.9987 8.45916 21.963 8.87864 21.9441 9.09791C21.9254 9.31729 21.9075 9.49671 21.9043 9.49671C21.9011 9.49671 21.669 9.49671 21.3886 9.49671H14.2753C13.9949 9.49671 13.7631 9.49671 13.7601 9.49671C13.757 9.49671 13.525 9.49671 13.2446 9.49671H9.49833C9.21792 9.49671 9.00899 9.73676 9.03387 10.0302L9.25239 12.5962C9.27727 12.8895 9.52719 13.1296 9.8076 13.1296H13.2447C13.5252 13.1296 13.7571 13.1296 13.7602 13.1296C13.7632 13.1296 13.995 13.1296 14.2754 13.1296H20.1834C20.4638 13.1296 20.8977 13.1296 21.1477 13.1296C21.3974 13.1296 21.5834 13.3437 21.5607 13.6054C21.538 13.8671 21.4991 14.3215 21.4743 14.6148L20.7716 22.8873C20.7465 23.1807 20.7148 23.5555 20.7011 23.7203C20.6872 23.8849 20.4548 24.084 20.1846 24.1628L14.2569 25.8894C13.9867 25.968 13.7621 26.0332 13.7579 26.0341C13.7538 26.0351 13.5293 25.9714 13.259 25.8926L7.32499 24.1629C7.05477 24.0842 6.81331 23.7796 6.78843 23.4862L6.40646 18.9824C6.38158 18.689 6.59072 18.449 6.87113 18.449H7.41268C7.69309 18.449 8.15195 18.449 8.43236 18.449H9.23995C9.52036 18.449 9.77008 18.689 9.79516 18.9824L9.94495 20.7455C9.96983 21.0389 10.2116 21.3417 10.4824 21.4185L13.2581 22.2059C13.5287 22.2827 13.7512 22.3456 13.7524 22.3456C13.7537 22.3456 13.9761 22.2826 14.2468 22.2058L17.0274 21.4165C17.2981 21.3397 17.54 21.0367 17.5651 20.7435L17.8666 17.2111C17.8917 16.9177 17.6828 16.6777 17.4024 16.6777H14.2754C13.995 16.6777 13.7632 16.6777 13.7602 16.6777C13.7571 16.6777 13.5252 16.6777 13.2447 16.6777H6.71991C6.4395 16.6777 6.18978 16.4375 6.1649 16.1442L5.42502 7.4349C5.40014 7.14151 5.36149 6.68733 5.33916 6.42553C5.31704 6.16384 5.52821 5.94971 5.80862 5.94971H13.2447C13.5252 5.94971 13.7571 5.94971 13.7602 5.94971C13.7632 5.94971 13.995 5.94971 14.2754 5.94971H21.7026C21.9829 5.94971 22.1942 6.16384 22.1719 6.42564Z" fill="#7C8B9C"/>
</svg>
