<svg width="26" height="33" viewBox="0 0 26 33" fill="none" xmlns="http://www.w3.org/2000/svg">
<path d="M8.58981 32.0882C4.04895 32.0607 0.292847 22.3231 0.292847 17.364C0.292847 9.26328 6.07759 7.48982 8.30699 7.48982C9.31169 7.48982 10.3845 7.90429 11.3307 8.27107C11.9924 8.52691 12.6768 8.79102 13.0574 8.79102C13.2852 8.79102 13.822 8.56635 14.296 8.36923C15.3068 7.94649 16.5647 7.42108 18.0294 7.42108C18.032 7.42108 18.0356 7.42108 18.0381 7.42108C19.1318 7.42108 22.448 7.67324 24.4418 10.8185L24.9088 11.5558L24.2367 12.0886C23.2765 12.8496 21.5245 14.238 21.5245 16.9881C21.5245 20.2452 23.5086 21.4979 24.4618 22.1003C24.8826 22.3663 25.3182 22.6405 25.3182 23.2402C25.3182 23.6317 22.3433 32.0396 18.0233 32.0396C16.9662 32.0396 16.219 31.7058 15.5599 31.4115C14.893 31.1135 14.3178 30.8567 13.3672 30.8567C12.8853 30.8567 12.276 31.0961 11.6309 31.3501C10.7494 31.6957 9.75164 32.0882 8.61948 32.0882H8.58981Z" fill="#7C8B9C"/>
<path d="M18.4871 0.0368881C18.5996 4.29846 15.6984 7.25495 12.8006 7.06952C12.3231 3.66864 15.698 0.0368881 18.4871 0.0368881Z" fill="#7C8B9C"/>
</svg>
