<svg width="31" height="33" viewBox="0 0 31 33" fill="none" xmlns="http://www.w3.org/2000/svg">
<g clip-path="url(#clip0)">
<path d="M15.1449 5.96273C13.7351 7.00434 12.1373 8.18499 11.2812 10.1382C9.79422 13.5457 14.324 17.2628 14.5176 17.4194C14.5626 17.4559 14.6164 17.474 14.6702 17.474C14.7272 17.474 14.7843 17.4535 14.8307 17.4127C14.9206 17.3337 14.9462 17.1995 14.8921 17.0902C14.8757 17.057 13.2498 13.7392 13.3102 11.3589C13.3316 10.53 14.436 9.58956 15.6052 8.59387C16.676 7.68194 17.8898 6.64831 18.6001 5.43919C20.1592 2.77768 18.4263 0.160621 18.4086 0.13456C18.3398 0.0330471 18.2127 -0.00383812 18.1041 0.0462879C17.9956 0.096519 17.9355 0.21989 17.9603 0.341685C17.9638 0.358919 18.3008 2.08958 17.3631 3.87257C16.9766 4.60933 16.1278 5.23659 15.1449 5.96273Z" fill="#7C8B9C"/>
<path d="M21.0843 7.13646C21.1838 7.05775 21.213 6.91421 21.1528 6.79966C21.0925 6.68512 20.9614 6.63457 20.845 6.68102C20.6055 6.77665 14.9803 9.05439 14.9803 11.8067C14.9803 13.7038 15.7517 14.7061 16.315 15.438C16.536 15.725 16.7268 15.9729 16.7896 16.1846C16.9666 16.7945 16.5473 17.8968 16.3711 18.2701C16.3202 18.3775 16.3451 18.5075 16.4316 18.5859C16.4783 18.6282 16.5366 18.6497 16.595 18.6497C16.6447 18.6497 16.6947 18.6341 16.7378 18.6026C16.8345 18.5319 19.1016 16.8481 18.6949 14.8194C18.5435 14.0484 18.1828 13.4849 17.8645 12.9878C17.3714 12.2176 17.0153 11.6612 17.5555 10.6335C18.1888 9.43511 21.0554 7.15927 21.0843 7.13646Z" fill="#7C8B9C"/>
<path d="M6.4418 18.6935C6.34537 18.9966 6.39089 19.2977 6.57335 19.5639C7.18315 20.4531 9.34308 20.9429 12.6556 20.9429C12.6558 20.9429 12.6559 20.9429 12.656 20.9429C13.1048 20.9429 13.5787 20.9337 14.0641 20.9154C19.3601 20.7162 21.3245 18.983 21.4055 18.9093C21.4939 18.829 21.5175 18.6953 21.4626 18.587C21.4076 18.4789 21.2892 18.4246 21.1761 18.4572C19.3109 18.9922 15.828 19.1821 13.4121 19.1821C10.7089 19.1821 9.33227 18.9776 8.99526 18.8266C9.16822 18.5771 10.2349 18.1317 11.5566 17.8586C11.683 17.8325 11.7698 17.71 11.7573 17.5754C11.7448 17.4407 11.6372 17.3381 11.5084 17.3381C10.7335 17.3382 6.84794 17.4035 6.4418 18.6935Z" fill="#7C8B9C"/>
<path d="M24.1634 16.9085C23.0711 16.9085 22.0352 17.4835 21.9916 17.508C21.8906 17.5649 21.8393 17.6866 21.8671 17.8034C21.8949 17.9202 21.9948 18.0022 22.1094 18.0024C22.1326 18.0025 24.4395 18.0222 24.6485 19.4068C24.8335 20.6013 22.4658 22.5368 21.5377 23.1818C21.4375 23.2515 21.3986 23.3862 21.4451 23.5026C21.4846 23.6016 21.5766 23.6636 21.6756 23.6636C21.6929 23.6636 21.7104 23.6618 21.7278 23.6578C21.9481 23.6084 27.1151 22.4123 26.5688 19.2518C26.2355 17.315 25.0767 16.9085 24.1634 16.9085Z" fill="#7C8B9C"/>
<path d="M20.62 22.7951C20.638 22.6938 20.5979 22.5908 20.5177 22.5318L19.2788 21.6202C19.2184 21.5757 19.142 21.5617 19.0711 21.5815C19.0582 21.5851 17.7626 21.9428 15.8815 22.1622C15.135 22.2502 14.2988 22.2966 13.4632 22.2966C11.5827 22.2966 10.3531 22.0645 10.174 21.8942C10.1503 21.8464 10.1578 21.8247 10.162 21.8126C10.1945 21.7175 10.3689 21.6045 10.4813 21.5598C10.6055 21.5116 10.6724 21.37 10.6338 21.2369C10.5953 21.1039 10.4647 21.0255 10.3359 21.0581C9.09305 21.3731 8.48535 21.8137 8.52956 22.3675C8.60809 23.3494 10.7731 23.8533 12.6034 23.9867C12.8666 24.0056 13.1513 24.0153 13.4493 24.0153C13.4495 24.0153 13.4496 24.0153 13.4498 24.0153C16.4933 24.0153 20.3951 23.0121 20.4341 23.0019C20.5293 22.9772 20.6019 22.8964 20.62 22.7951Z" fill="#7C8B9C"/>
<path d="M11.2799 24.9025C11.3738 24.8383 11.4154 24.7165 11.3821 24.6043C11.3489 24.4921 11.2489 24.4184 11.1367 24.4199C10.9701 24.4245 9.50695 24.4938 9.40451 25.4725C9.3735 25.765 9.45323 26.0321 9.64159 26.2665C10.167 26.9206 11.585 27.3093 13.9763 27.4551C14.2591 27.4728 14.5464 27.4818 14.8304 27.4818C17.8705 27.4818 19.9179 26.4819 20.0036 26.4393C20.0867 26.398 20.1415 26.3123 20.1464 26.2158C20.1513 26.1194 20.1055 26.0279 20.0271 25.9776L18.4614 24.9735C18.407 24.9387 18.342 24.9271 18.28 24.9405C18.2701 24.9427 17.276 25.1592 15.7757 25.3733C15.4918 25.4138 15.1362 25.4344 14.7191 25.4344C13.2204 25.4344 11.5534 25.1771 11.2337 25.0088C11.2291 24.9771 11.235 24.9372 11.2799 24.9025Z" fill="#7C8B9C"/>
<path d="M13.4134 30.5008C20.3767 30.4946 24.1141 29.1937 24.834 28.3751C25.0889 28.0854 25.1164 27.8112 25.0947 27.6321C25.0412 27.1914 24.6592 26.9217 24.6157 26.8923C24.5112 26.8217 24.371 26.8402 24.2894 26.939C24.2081 27.0379 24.2062 27.1822 24.2878 27.2808C24.3317 27.3402 24.3572 27.4395 24.2287 27.5746C23.9409 27.8569 21.0379 28.7141 16.2045 28.9716C15.5424 29.0078 14.848 29.0261 14.1405 29.0262C9.81287 29.0262 6.64571 28.4036 6.22997 28.0406C6.39032 27.7988 7.5105 27.4123 8.7019 27.1938C8.83614 27.1692 8.92687 27.0363 8.90607 26.8949C8.88526 26.7534 8.76112 26.656 8.62547 26.6746C8.59186 26.6793 8.47792 26.6867 8.34578 26.6951C6.38002 26.8212 4.10835 27.1023 3.98981 28.1662C3.9538 28.4905 4.04553 28.7847 4.26251 29.0409C4.79338 29.6676 6.3194 30.5007 13.4131 30.5007C13.4133 30.5008 13.4133 30.5008 13.4134 30.5008Z" fill="#7C8B9C"/>
<path d="M26.2017 28.6058C26.1032 28.558 25.987 28.5821 25.9135 28.6654C25.9032 28.6769 24.8563 29.827 21.7086 30.5023C20.5035 30.7559 18.2414 30.8846 14.9852 30.8846C11.7229 30.8846 8.61877 30.7497 8.58776 30.7484C8.45812 30.7418 8.34718 30.8408 8.32957 30.9748C8.31187 31.1089 8.39409 31.2351 8.51934 31.2665C8.55165 31.2745 11.8048 32.0752 16.2529 32.0752C18.3863 32.0752 20.4623 31.8931 22.4234 31.5339C26.0799 30.8605 26.3359 28.9558 26.345 28.8751C26.3577 28.7623 26.2999 28.6536 26.2017 28.6058Z" fill="#7C8B9C"/>
</g>
<defs>
<clipPath id="clip0">
<rect width="30.5103" height="32.0513" fill="white" transform="translate(0.0409393 0.0239487)"/>
</clipPath>
</defs>
</svg>
