<svg width="31" height="33" viewBox="0 0 31 33" fill="none" xmlns="http://www.w3.org/2000/svg">
<path d="M28.6022 0.0368881H1.98872C0.913945 0.0368881 0.0409393 0.952601 0.0409393 2.08304V30.0421C0.0409393 31.1697 0.913945 32.0882 1.98872 32.0882H28.6022C29.677 32.0882 30.55 31.1711 30.55 30.0421V2.08166C30.5487 0.952601 29.677 0.0368881 28.6022 0.0368881ZM13.8943 18.1018C13.8943 18.9926 13.8139 19.7517 13.653 20.3779C13.4921 21.0041 13.2481 21.507 12.9237 21.9004C12.598 22.2883 12.1905 22.5751 11.7052 22.7538C11.2186 22.9352 10.6528 23.0239 10.008 23.0239C9.44091 23.0239 8.92924 22.9297 8.469 22.7427C8.00876 22.5557 7.61973 22.2883 7.29796 21.9392C6.97487 21.5887 6.72695 21.1662 6.55287 20.6702C6.37748 20.1729 6.29044 19.6173 6.29044 19.0092V18.6102H8.11822C8.11822 20.3973 8.74857 21.2922 10.0093 21.2922C10.3324 21.2922 10.6185 21.2534 10.8717 21.1717C11.1236 21.0886 11.3373 20.9376 11.5127 20.7118C11.688 20.4873 11.8199 20.177 11.9109 19.7753C12.0019 19.3735 12.0481 18.8499 12.0481 18.2029V8.20349H13.8969V18.1018H13.8943ZM24.0947 21.0041C23.9062 21.4086 23.6371 21.7619 23.2929 22.0639C22.9461 22.3659 22.5228 22.6 22.0256 22.7718C21.5298 22.9394 20.9706 23.0239 20.3548 23.0239C17.625 23.0239 16.1836 21.8921 16.0372 19.6257H17.8334C17.8413 20.9057 18.676 21.5471 20.335 21.5471C20.7029 21.5471 21.0326 21.5056 21.3162 21.4183C21.5997 21.3338 21.8371 21.216 22.0243 21.0664C22.2142 20.9168 22.3566 20.7381 22.4555 20.5344C22.5518 20.3322 22.6032 20.1119 22.6032 19.8709C22.6032 19.6173 22.565 19.4165 22.4925 19.2641C22.4186 19.1103 22.2736 18.9732 22.0599 18.854C21.8476 18.7363 21.5509 18.6199 21.1737 18.5077C20.7953 18.3913 20.3007 18.2486 19.6915 18.081C19.098 17.9258 18.5837 17.7707 18.1538 17.6155C17.7213 17.4631 17.3679 17.2761 17.0922 17.0558C16.8153 16.8342 16.6096 16.5627 16.4764 16.2399C16.3432 15.9157 16.2773 15.507 16.2773 15.0138C16.2773 14.5802 16.3643 14.1771 16.5397 13.8058C16.7151 13.4346 16.9643 13.1132 17.2914 12.8402C17.6158 12.5673 18.0101 12.3554 18.4716 12.2002C18.9372 12.0451 19.4515 11.9689 20.0172 11.9689C22.6573 11.9689 23.9998 12.9538 24.0407 14.9266H22.2749C22.2116 13.9416 21.5047 13.447 20.153 13.447C19.8524 13.447 19.5754 13.4789 19.3183 13.5412C19.0611 13.6036 18.8409 13.6936 18.651 13.8114C18.4611 13.9291 18.316 14.0746 18.2092 14.2477C18.105 14.4209 18.0523 14.6218 18.0523 14.849C18.0523 15.0554 18.0773 15.2244 18.1261 15.356C18.1749 15.489 18.2923 15.6137 18.4782 15.7273C18.6642 15.8409 18.9398 15.9531 19.3024 16.0639C19.6664 16.1748 20.1636 16.3105 20.7953 16.4726C21.4045 16.6264 21.9333 16.7871 22.383 16.9519C22.8301 17.1182 23.202 17.3191 23.5013 17.5546C23.7993 17.7887 24.0183 18.0755 24.1633 18.4149C24.3057 18.7529 24.3783 19.1768 24.3783 19.6838C24.3783 20.159 24.282 20.5996 24.0947 21.0041Z" fill="#7C8B9C"/>
</svg>
