<svg width="28" height="33" viewBox="0 0 28 33" fill="none" xmlns="http://www.w3.org/2000/svg">
<path d="M13.5942 32.0287C13.1745 32.0287 12.7828 31.9112 12.4191 31.7054L8.69806 29.3836C8.13851 29.0603 8.41828 28.9427 8.58615 28.8839C9.34155 28.6194 9.48143 28.5606 10.2648 28.0904C10.3487 28.0316 10.4607 28.061 10.5446 28.1198L13.3983 29.9126C13.5102 29.9714 13.6501 29.9714 13.734 29.9126L24.8971 23.1233C25.0091 23.0646 25.065 22.947 25.065 22.8V9.25089C25.065 9.10394 25.0091 8.98638 24.8971 8.9276L13.734 2.16772C13.6221 2.10894 13.4822 2.10894 13.3983 2.16772L2.23521 8.9276C2.1233 8.98638 2.06735 9.13333 2.06735 9.25089V22.8C2.06735 22.9176 2.1233 23.0646 2.23521 23.1233L5.28478 24.975C6.93547 25.8567 7.97064 24.828 7.97064 23.7993V10.4265C7.97064 10.2502 8.11053 10.0738 8.30637 10.0738H9.73323C9.9011 10.0738 10.069 10.2208 10.069 10.4265V23.7993C10.069 26.1212 8.86593 27.4732 6.7676 27.4732C6.12411 27.4732 5.62051 27.4732 4.19365 26.7384L1.256 24.975C0.528576 24.5341 0.0809326 23.7112 0.0809326 22.8294V9.28028C0.0809326 8.39856 0.528576 7.57562 1.256 7.13476L12.4191 0.345491C13.1185 -0.0659795 14.0698 -0.0659795 14.7692 0.345491L25.9323 7.13476C26.6597 7.57562 27.1074 8.39856 27.1074 9.28028V22.8294C27.1074 23.7112 26.6597 24.5341 25.9323 24.975L14.7692 31.7642C14.4055 31.9406 13.9858 32.0287 13.5942 32.0287ZM17.0354 22.7119C12.1393 22.7119 11.1321 20.3606 11.1321 18.362C11.1321 18.1857 11.272 18.0093 11.4679 18.0093H12.9227C13.0906 18.0093 13.2304 18.1269 13.2304 18.3033C13.4543 19.861 14.0978 20.6251 17.0634 20.6251C19.4135 20.6251 20.4207 20.0667 20.4207 18.7441C20.4207 17.98 20.1409 17.4215 16.4759 17.0394C13.4263 16.7162 11.5238 16.0108 11.5238 13.4538C11.5238 11.0731 13.4263 9.66237 16.6157 9.66237C20.1969 9.66237 21.9595 10.9556 22.1833 13.7771C22.1833 13.8652 22.1553 13.9534 22.0994 14.0416C22.0434 14.1004 21.9595 14.1592 21.8755 14.1592H20.4207C20.2808 14.1592 20.1409 14.0416 20.113 13.8946C19.7772 12.2781 18.9099 11.7491 16.6157 11.7491C14.0418 11.7491 13.734 12.6896 13.734 13.395C13.734 14.2473 14.0978 14.5118 17.567 14.9821C21.0082 15.4523 22.6309 16.1283 22.6309 18.6559C22.603 21.2423 20.5886 22.7119 17.0354 22.7119Z" fill="#7C8B9C"/>
</svg>
