<svg width="33" height="35" viewBox="0 0 33 35" fill="none" xmlns="http://www.w3.org/2000/svg">
<path d="M16.3373 33.6921C25.1135 33.6921 32.2281 26.2182 32.2281 16.9987C32.2281 7.77919 25.1135 0.305305 16.3373 0.305305C7.56102 0.305305 0.446472 7.77919 0.446472 16.9987C0.446472 26.2182 7.56102 33.6921 16.3373 33.6921Z" fill="#7C8B9C"/>
<path fill-rule="evenodd" clip-rule="evenodd" d="M13.6834 33.945C10.1598 33.2901 7.13777 31.6004 4.64049 28.8887C2.51657 26.5825 1.05504 23.6783 0.389589 20.4416C0.102233 19.044 0.102233 15.0446 0.389589 13.6469C0.839263 11.4598 1.71267 9.28663 2.90332 7.39244C3.69164 6.13832 5.99977 3.7139 7.19375 2.88587C8.99709 1.63524 11.066 0.717836 13.1483 0.245508C14.4789 -0.0563233 18.2865 -0.0563233 19.6171 0.245508C22.8615 0.98145 25.5573 2.52011 27.8838 4.9638C30.2103 7.40749 31.6751 10.2391 32.3758 13.6469C32.6631 15.0446 32.6631 19.044 32.3758 20.4416C31.6751 23.8495 30.2103 26.6811 27.8838 29.1248C25.594 31.5298 22.9326 33.0649 19.7422 33.8207C18.6107 34.0887 14.8699 34.1655 13.6834 33.945ZM16.6124 30.5468C16.6124 29.4308 16.597 29.3504 16.3827 29.3504C16.17 29.3504 16.1537 29.4274 16.1627 30.3877C16.1733 31.5219 16.2492 31.8704 16.4689 31.7935C16.5708 31.7578 16.6124 31.3964 16.6124 30.5468ZM14.901 30.9309C15.2033 30.6132 15.2915 30.4206 15.2915 30.0775C15.2915 29.7276 15.2509 29.6425 15.0988 29.6733C14.9927 29.6948 14.8655 29.8752 14.816 30.0743C14.7665 30.2733 14.5633 30.5809 14.3643 30.7578C14.0059 31.0763 13.9919 31.3411 14.3334 31.3411C14.4308 31.3411 14.6862 31.1565 14.901 30.9309ZM18.6859 31.2102C18.7282 31.1383 18.6001 30.9347 18.4011 30.7578C18.2021 30.5809 17.9988 30.2733 17.9493 30.0743C17.8998 29.8752 17.7726 29.6948 17.6666 29.6733C17.5144 29.6425 17.4739 29.7276 17.4739 30.0775C17.4739 30.7715 18.4224 31.658 18.6859 31.2102ZM13.4537 29.0431C13.4537 28.9737 13.293 28.8244 13.0966 28.7114C11.8159 27.9744 10.3143 26.8023 9.47934 25.888C7.84977 24.1036 7.11611 22.3265 7.09841 20.1208C7.08658 18.6466 7.26756 17.8781 7.95088 16.5014C8.61152 15.1703 9.37736 14.1655 11.4836 11.8663C13.8357 9.29872 14.3774 8.62107 14.7862 7.73411C15.0766 7.10423 15.1153 6.87461 15.1557 5.54275C15.2058 3.88917 15.11 2.7475 14.9211 2.7475C14.8352 2.7475 14.8188 3.17658 14.868 4.1403C15.0253 7.22471 14.48 8.18176 11.0961 10.7602C8.7656 12.536 7.69604 13.5004 6.88844 14.5543C5.74418 16.0474 5.23786 17.3398 5.11096 19.0915C4.80512 23.3132 7.3521 26.9738 11.8456 28.7709C12.8371 29.1674 13.4537 29.2718 13.4537 29.0431ZM21.2279 28.7006C22.7727 28.0249 23.9477 27.2074 25.0547 26.0382C26.7429 24.2552 27.4461 22.5884 27.5512 20.1208C27.6433 17.9569 27.196 16.5253 25.921 14.9042C25.0474 13.7934 24.1071 12.9989 21.5716 11.2292C18.1598 8.84784 17.359 7.89971 17.359 6.24177C17.359 5.80085 17.4346 5.17612 17.5271 4.85348C17.6847 4.30347 17.6806 3.92419 17.5217 4.35898C17.3714 4.77047 17.0287 4.58102 16.8438 3.98414L16.6662 3.41106L16.7335 3.95398C16.9721 5.88047 17.0018 6.68773 16.8964 8.37403C16.7538 10.6539 16.4871 12.2123 15.7545 15.0462C15.0275 17.8585 14.8966 18.8779 14.9869 21.0257C15.0632 22.8414 15.3048 24.1995 15.8669 25.9722C16.3886 27.6177 16.4858 27.7425 17.4454 28.0003C17.9734 28.1421 18.4731 28.3816 18.8711 28.6837C19.2444 28.967 19.6186 29.1513 19.8285 29.1554C20.018 29.159 20.6478 28.9544 21.2279 28.7006H21.2279ZM20.8814 27.8825C20.738 27.7318 20.8047 27.6037 21.3654 26.9534C23.1307 24.9058 23.922 22.7913 23.9445 20.0605C23.9599 18.2003 23.5687 16.9676 22.3746 15.1139C21.8346 14.2756 19.9345 12.185 19.0154 11.418C18.3408 10.855 17.6483 9.89576 17.5246 9.35297C17.3993 8.80342 17.7501 8.94853 18.157 9.61459C18.3564 9.94096 18.7882 10.4202 19.1166 10.6795C19.445 10.9388 20.4163 11.6996 21.275 12.3702C24.2298 14.6775 25.5446 16.6445 25.8404 19.2C26.0116 20.6787 25.7396 22.2067 25.0527 23.6254C24.3409 25.0956 23.043 26.697 21.931 27.4769C21.2471 27.9566 21.0314 28.04 20.8814 27.8825ZM15.0978 28.0382C15.1312 27.9469 14.8355 27.3633 14.4406 26.7413C13.3952 25.0941 12.9402 24.185 12.516 22.8957C12.1582 21.8081 12.1388 21.6602 12.136 20.0002C12.1318 17.4902 12.3905 16.6945 14.2858 13.3883C16.0732 10.2705 16.3151 9.06338 16.1138 4.26668C16.0416 2.5475 15.9598 1.11691 15.9319 1.08759C15.743 0.889238 15.7033 1.39875 15.7727 3.12788C15.9109 6.57041 15.6995 8.4885 15.0084 10.0614C14.5378 11.1325 14.0118 11.9445 12.595 13.7868C10.6229 16.3511 10.0663 17.7111 10.0766 19.9398C10.0837 21.4674 10.2808 22.4069 10.8684 23.7138C11.5047 25.129 12.6756 26.5571 14.1429 27.7078C14.8185 28.2376 15.0018 28.301 15.0978 28.0382Z" fill="white"/>
</svg>
