<svg width="32" height="33" viewBox="0 0 32 33" fill="none" xmlns="http://www.w3.org/2000/svg">
<g clip-path="url(#clip0)">
<path d="M15.8733 8.04972C7.31893 8.04972 0.618097 11.5697 0.618097 16.0626C0.618097 20.5554 7.31893 24.0754 15.8733 24.0754C24.4276 24.0754 31.1284 20.5554 31.1284 16.0626C31.1284 11.5697 24.4276 8.04972 15.8733 8.04972Z" fill="white"/>
<path d="M15.8733 22.7399C12.2183 22.7399 8.84544 22.0245 6.32339 20.8824L6.83539 18.7335H9.06509C10.746 18.7335 12.2048 17.5369 12.6132 15.8232L12.7244 15.3531C12.9149 14.555 12.7473 13.7249 12.2656 13.0767C11.7833 12.4279 11.0583 12.0561 10.2749 12.0561H7.61007C7.31831 12.0561 7.06446 12.2648 6.99366 12.5621L5.15351 20.2946C3.12588 19.1332 1.88938 17.6524 1.88938 16.0626C1.88938 12.4428 8.29351 9.38518 15.8733 9.38518C23.4531 9.38518 29.8572 12.4428 29.8572 16.0626C29.8572 19.6823 23.4531 22.7399 15.8733 22.7399Z" fill="#7C8B9C"/>
<path opacity="0.2" d="M2.52503 16.7303C2.52503 13.1106 8.92916 10.0529 16.509 10.0529C21.817 10.0529 26.5392 11.5548 28.8985 13.6968C26.8483 11.2055 21.7171 9.38518 15.8733 9.38518C8.29351 9.38518 1.88938 12.4428 1.88938 16.0626C1.88938 17.1281 2.45495 18.142 3.43182 19.0463C2.84914 18.3209 2.52503 17.5401 2.52503 16.7303Z" fill="white"/>
<path d="M7.15318 17.398L8.10662 13.3916H10.2748C10.6634 13.3916 11.0241 13.5761 11.263 13.8983C11.5026 14.2204 11.5858 14.6325 11.4908 15.0296L11.3797 15.4998C11.1134 16.6174 10.1618 17.398 9.06496 17.398H7.15318Z" fill="#7C8B9C"/>
<path d="M7.15318 17.398L8.10662 13.3916H10.2748C10.6634 13.3916 11.0241 13.5761 11.263 13.8983C11.5026 14.2204 11.5858 14.6325 11.4908 15.0296L11.3797 15.4998C11.1134 16.6174 10.1618 17.398 9.06496 17.398H7.15318Z" fill="#7C8B9C"/>
<path d="M24.8943 12.0561H22.2295C21.9378 12.0561 21.6839 12.2648 21.6131 12.5621L20.345 17.889C20.3425 17.8988 20.3406 17.9079 20.3381 17.9171L19.7062 20.575C19.6205 20.9323 19.8279 21.2949 20.1686 21.3842C20.2202 21.3979 20.2723 21.4044 20.3232 21.4044C20.6081 21.4044 20.867 21.2023 20.939 20.8984L21.4548 18.7335H23.6845C25.3654 18.7335 26.8242 17.5369 27.2326 15.8232L27.3437 15.3531C27.5343 14.5549 27.3667 13.7249 26.885 13.0766C26.4027 12.4278 25.6777 12.0561 24.8943 12.0561ZM26.1104 15.0296L25.9993 15.4998C25.733 16.6174 24.7814 17.398 23.6845 17.398H21.7727L22.7261 13.3916H24.8943C25.2829 13.3916 25.6436 13.5761 25.8825 13.8983C26.1222 14.2204 26.2053 14.6325 26.1104 15.0296Z" fill="white"/>
<path d="M19.2997 12.8713C18.898 12.3535 18.3034 12.0561 17.6671 12.0561H15.6521L15.8627 10.84C15.926 10.4774 15.6969 10.1299 15.3512 10.064C15.008 9.99746 14.6746 10.2381 14.6125 10.6013L13.3412 17.9464C13.2779 18.309 13.5069 18.6566 13.8527 18.7224C13.8912 18.7303 13.929 18.7335 13.9669 18.7335C14.2686 18.7335 14.5361 18.5079 14.5914 18.1851L15.421 13.3916H17.6671C17.9191 13.3916 18.1544 13.509 18.3133 13.7144C18.4722 13.9198 18.5343 14.1859 18.4828 14.4454L17.7932 17.9302C17.7218 18.2907 17.9427 18.6442 18.2866 18.7199C18.3301 18.729 18.3735 18.7336 18.4164 18.7336C18.7112 18.7336 18.9756 18.5171 19.0384 18.2015L19.728 14.7167C19.8571 14.0626 19.7006 13.3896 19.2997 12.8713Z" fill="white"/>
<path d="M1.1181 16.0626C1.1181 14.0898 2.5943 12.2196 5.27032 10.814C7.92778 9.41808 11.6578 8.54972 15.8733 8.54972C20.0887 8.54972 23.8188 9.41808 26.4762 10.814C29.1522 12.2196 30.6284 14.0898 30.6284 16.0626C30.6284 18.0353 29.1522 19.9055 26.4762 21.3111C23.8188 22.707 20.0887 23.5754 15.8733 23.5754C11.6578 23.5754 7.92778 22.707 5.27032 21.3111C2.5943 19.9055 1.1181 18.0353 1.1181 16.0626Z" fill="url(#paint0_linear)" stroke="#7C8B9C"/>
</g>
<defs>
<linearGradient id="paint0_linear" x1="2.99167" y1="9.7519" x2="29.1945" y2="21.3864" gradientUnits="userSpaceOnUse">
<stop stop-color="white" stop-opacity="0.2"/>
<stop offset="1" stop-color="white" stop-opacity="0"/>
</linearGradient>
<clipPath id="clip0">
<rect width="30.5104" height="32.0513" fill="white" transform="translate(0.618097 0.0368881)"/>
</clipPath>
</defs>
</svg>
