<svg width="32" height="33" viewBox="0 0 32 33" fill="none" xmlns="http://www.w3.org/2000/svg">
<g clip-path="url(#clip0)">
<path d="M7.57715 18.5536C7.57715 16.6551 9.04736 15.1106 10.8546 15.1106H20.985C21.8065 15.1106 22.4748 14.4086 22.4748 13.5456V4.71897C22.4748 2.1301 20.4699 0.0239487 18.0055 0.0239487H13.8342C11.3698 0.0239487 9.36487 2.1301 9.36487 4.71897V7.28558H15.9198C16.4135 7.28558 16.8137 7.70593 16.8137 8.22458C16.8137 8.74323 16.4135 9.16358 15.9198 9.16358H5.13394C2.66955 9.16358 0.66465 11.2697 0.66465 13.8586V18.2406C0.66465 20.8295 2.66955 22.9356 5.13394 22.9356H7.57715V18.5536ZM13.8342 4.78157C13.3404 4.78157 12.9403 4.36122 12.9403 3.84256C12.9403 3.32391 13.3404 2.90356 13.8342 2.90356C14.3279 2.90356 14.728 3.32391 14.728 3.84256C14.728 4.36122 14.3279 4.78157 13.8342 4.78157Z" fill="#7C8B9C"/>
<path d="M26.7057 9.16358H24.2625V13.5456C24.2625 15.4441 22.7923 16.9886 20.985 16.9886H10.8546C10.0332 16.9886 9.36487 17.6907 9.36487 18.5536V27.3803C9.36487 29.9691 11.3698 32.0753 13.8342 32.0753H18.0055C20.4699 32.0753 22.4748 29.9691 22.4748 27.3803V24.8136H15.9198C15.4261 24.8136 15.026 24.3933 15.026 23.8746C15.026 23.356 15.4261 22.9356 15.9198 22.9356H26.7057C29.1701 22.9356 31.175 20.8295 31.175 18.2406V13.8586C31.175 11.2697 29.1701 9.16358 26.7057 9.16358ZM18.0055 27.3177C18.4992 27.3177 18.8994 27.738 18.8994 28.2567C18.8994 28.7753 18.4992 29.1957 18.0055 29.1957C17.5118 29.1957 17.1116 28.7753 17.1116 28.2567C17.1116 27.738 17.5118 27.3177 18.0055 27.3177Z" fill="#7C8B9C"/>
</g>
<defs>
<clipPath id="clip0">
<rect width="30.5104" height="32.0513" fill="white" transform="translate(0.66465 0.0239487)"/>
</clipPath>
</defs>
</svg>
