<svg width="32" height="37" viewBox="0 0 32 37" fill="none" xmlns="http://www.w3.org/2000/svg">
<g clip-path="url(#clip0)">
<path d="M31.4836 18.2645C31.4836 16.1439 28.9525 14.1343 25.0718 12.8881C25.9673 8.73843 25.5693 5.43694 23.8156 4.37994C23.4113 4.13201 22.9387 4.01456 22.4225 4.01456V5.46956C22.7086 5.46956 22.9387 5.52829 23.1315 5.63921C23.9773 6.14813 24.3442 8.08596 24.0581 10.5784C23.9897 11.1917 23.8778 11.8376 23.7409 12.4966C22.522 12.1835 21.1912 11.942 19.7919 11.7854C18.9523 10.5784 18.0817 9.48224 17.2048 8.52311C19.2322 6.54614 21.1352 5.46304 22.4287 5.46304V4.00804C20.7185 4.00804 18.4797 5.28687 16.216 7.50526C13.9523 5.29992 11.7134 4.03414 10.0032 4.03414V5.48914C11.2905 5.48914 13.1998 6.56571 15.2272 8.52964C14.3565 9.48876 13.4858 10.5784 12.6587 11.7854C11.2532 11.942 9.92236 12.1835 8.70344 12.5032C8.5604 11.8507 8.45468 11.2178 8.38005 10.611C8.08775 8.11858 8.44846 6.18075 9.28802 5.66531C9.47459 5.54786 9.71713 5.49566 10.0032 5.49566V4.04066C9.48081 4.04066 9.00816 4.1581 8.59771 4.40604C6.85018 5.46304 6.45838 8.758 7.36013 12.8946C3.49193 14.1474 0.973236 16.1505 0.973236 18.2645C0.973236 20.385 3.50436 22.3946 7.38501 23.6408C6.48948 27.7905 6.88749 31.092 8.64125 32.149C9.04548 32.3969 9.51812 32.5143 10.0405 32.5143C11.7507 32.5143 13.9896 31.2355 16.2533 29.0171C18.517 31.2225 20.7558 32.4882 22.466 32.4882C22.9884 32.4882 23.4611 32.3708 23.8715 32.1229C25.6191 31.0659 26.0109 27.7709 25.1091 23.6343C28.9649 22.388 31.4836 20.3784 31.4836 18.2645ZM23.3865 13.9125C23.1564 14.7542 22.8703 15.622 22.5469 16.4897C22.2919 15.9678 22.0245 15.4458 21.7322 14.9238C21.4461 14.4018 21.1414 13.8929 20.8367 13.397C21.7198 13.5341 22.5718 13.7037 23.3865 13.9125ZM20.5382 20.8613C20.0531 21.7421 19.5556 22.5773 19.0394 23.3537C18.1128 23.4385 17.1737 23.4842 16.2284 23.4842C15.2893 23.4842 14.3503 23.4385 13.4299 23.3602C12.9137 22.5838 12.41 21.7552 11.9249 20.8808C11.4522 20.0261 11.0231 19.1583 10.6313 18.284C11.0169 17.4097 11.4522 16.5354 11.9187 15.6807C12.4037 14.7998 12.9012 13.9647 13.4174 13.1883C14.3441 13.1034 15.2831 13.0578 16.2284 13.0578C17.1675 13.0578 18.1065 13.1034 19.027 13.1817C19.5431 13.9582 20.0469 14.7868 20.5319 15.6611C21.0046 16.5158 21.4337 17.3836 21.8255 18.2579C21.4337 19.1322 21.0046 20.0065 20.5382 20.8613ZM22.5469 20.0131C22.8827 20.8874 23.1688 21.7617 23.4051 22.6099C22.5904 22.8187 21.7322 22.9948 20.8429 23.1319C21.1476 22.6295 21.4524 22.114 21.7384 21.5855C22.0245 21.0635 22.2919 20.535 22.5469 20.0131ZM16.2408 26.9749C15.6625 26.3485 15.0841 25.6504 14.512 24.887C15.0717 24.9131 15.6438 24.9327 16.2222 24.9327C16.8068 24.9327 17.3851 24.9196 17.9511 24.887C17.3914 25.6504 16.813 26.3485 16.2408 26.9749ZM11.6139 23.1319C10.7308 22.9948 9.87882 22.8252 9.06414 22.6164C9.29424 21.7747 9.58031 20.9069 9.9037 20.0392C10.1587 20.5611 10.4261 21.0831 10.7184 21.6051C11.0107 22.1271 11.3092 22.636 11.6139 23.1319ZM16.2098 9.55401C16.7881 10.1804 17.3665 10.8785 17.9386 11.6419C17.3789 11.6158 16.8068 11.5962 16.2284 11.5962C15.6438 11.5962 15.0655 11.6093 14.4995 11.6419C15.0592 10.8785 15.6376 10.1804 16.2098 9.55401ZM11.6077 13.397C11.303 13.8994 10.9982 14.4149 10.7122 14.9434C10.4261 15.4654 10.1587 15.9873 9.9037 16.5093C9.56787 15.635 9.2818 14.7607 9.04548 13.9125C9.86017 13.7102 10.7184 13.5341 11.6077 13.397ZM5.97952 21.5659C3.778 20.5807 2.35385 19.2888 2.35385 18.2645C2.35385 17.2401 3.778 15.9417 5.97952 14.963C6.51435 14.7216 7.09894 14.5062 7.70218 14.304C8.05666 15.5828 8.52308 16.9138 9.10145 18.2775C8.5293 19.6346 8.0691 20.9591 7.72084 22.2315C7.10516 22.0292 6.52057 21.8074 5.97952 21.5659ZM9.32533 30.8897C8.47955 30.3808 8.11263 28.4429 8.39871 25.9505C8.46711 25.3372 8.57906 24.6913 8.71587 24.0323C9.9348 24.3454 11.2657 24.5869 12.6649 24.7435C13.5045 25.9505 14.3751 27.0467 15.252 28.0058C13.2246 29.9828 11.3216 31.0659 10.0281 31.0659C9.74822 31.0593 9.5119 31.0006 9.32533 30.8897ZM24.0768 25.9179C24.3691 28.4103 24.0084 30.3481 23.1688 30.8636C22.9822 30.981 22.7397 31.0332 22.4536 31.0332C21.1663 31.0332 19.2571 29.9567 17.2297 27.9927C18.1003 27.0336 18.971 25.944 19.7981 24.7369C21.2036 24.5803 22.5345 24.3389 23.7534 24.0192C23.8964 24.6782 24.0084 25.3111 24.0768 25.9179ZM26.4711 21.5659C25.9362 21.8074 25.3517 22.0227 24.7484 22.2249C24.3939 20.9461 23.9275 19.6151 23.3491 18.2514C23.9213 16.8943 24.3815 15.5698 24.7298 14.2974C25.3454 14.4997 25.93 14.7216 26.4773 14.963C28.6788 15.9482 30.103 17.2401 30.103 18.2645C30.0967 19.2888 28.6726 20.5872 26.4711 21.5659Z" fill="#7C8B9C"/>
<path d="M16.2221 21.2462C17.7918 21.2462 19.0642 19.9112 19.0642 18.2644C19.0642 16.6176 17.7918 15.2827 16.2221 15.2827C14.6525 15.2827 13.3801 16.6176 13.3801 18.2644C13.3801 19.9112 14.6525 21.2462 16.2221 21.2462Z" fill="#7C8B9C"/>
</g>
<defs>
<clipPath id="clip0">
<rect width="30.5103" height="36.4745" fill="white" transform="translate(0.973236 0.0239487)"/>
</clipPath>
</defs>
</svg>
