<svg width="31" height="33" viewBox="0 0 31 33" fill="none" xmlns="http://www.w3.org/2000/svg">
<path d="M21.541 19.0145C17.4772 21.7656 13.4504 24.492 9.31739 27.2894C15.5069 28.1772 21.586 29.0489 27.7856 29.9381C25.6738 26.2436 23.616 22.6442 21.541 19.0145ZM29.5332 6.84063C28.9874 7.70106 28.4408 8.56116 27.896 9.42225C26.0245 12.3799 24.1536 15.3372 22.2843 18.2958C22.1802 18.4611 22.0452 18.5919 22.1918 18.8457C23.9985 21.9791 25.7905 25.1224 27.5868 28.2621C27.8702 28.7581 28.1571 29.2521 28.5238 29.7279L29.6131 6.86541L29.5332 6.84063ZM4.87389 16.6107C4.9585 16.6949 5.16956 16.7435 5.26738 16.6929C7.00018 15.7981 8.74399 14.9235 10.439 13.955C10.9914 13.6398 11.416 13.0738 11.8925 12.6152C13.4693 11.0962 15.0433 9.57391 16.6172 8.05131C16.7138 7.9578 16.8273 7.86759 16.8852 7.74963C17.4504 6.58884 18.0056 5.42277 18.5809 4.22233C17.8949 3.95237 17.2447 3.68704 16.5867 3.44583C16.4974 3.41312 16.3571 3.47821 16.2596 3.53505C14.7363 4.42918 13.1843 5.2754 11.7092 6.25049C10.9709 6.7382 10.3695 7.45687 9.71592 8.08336C8.66315 9.09314 7.61102 10.1052 6.57304 11.1329C6.2975 11.4055 6.0465 11.7171 5.8323 12.0448C5.12207 13.1306 4.43385 14.2319 3.71324 15.365C4.11648 15.8031 4.48229 16.2214 4.87389 16.6107ZM11.2065 15.1261C10.345 18.9514 9.48756 22.7549 8.60245 26.6837C12.7541 23.8738 16.8097 21.1286 20.8383 18.4016C17.6322 17.3112 14.4362 16.2244 11.2065 15.1261ZM18.0751 8.70225L21.6043 17.7202C23.9079 14.0852 26.1657 10.5219 28.4747 6.87731C24.9673 7.49289 21.5435 8.0936 18.0751 8.70225ZM11.3512 14.3436C14.5098 15.4211 17.6058 16.4768 20.7912 17.563C19.6082 14.5353 18.4658 11.6136 17.2995 8.62989L11.3512 14.3436ZM5.00443 18.8414L1.7005 27.138C3.81767 27.0723 5.87036 27.0085 7.99287 26.9428C6.99641 24.2412 6.01945 21.5925 5.00443 18.8414ZM8.06773 25.0187L8.14573 25.0008C8.90094 21.7005 9.66748 18.4231 10.439 14.9942C8.71851 15.9333 7.07724 16.8294 5.39068 17.7503C6.25095 20.1003 7.16877 22.5785 8.06773 25.0187ZM27.2049 6.34235C26.2 6.06281 25.196 5.78194 24.1901 5.50439C22.7454 5.10556 21.2995 4.71103 19.8554 4.30824C19.6752 4.25802 19.5443 4.22531 19.4383 4.45363C18.9282 5.55197 18.4016 6.64237 17.8833 7.73641C17.8672 7.77045 17.8704 7.81472 17.8581 7.89898C20.9871 7.40103 24.0954 6.90605 27.2031 6.41141L27.2049 6.34235ZM21.3759 3.84366C24.0743 4.6281 26.7728 5.4122 29.5656 6.22372L28.2124 2.17336C25.9194 2.70766 23.6538 3.23535 21.3882 3.76304L21.3759 3.84366ZM23.8551 30.0656L17.1362 29.1021C14.3453 28.7019 11.5594 28.2615 8.76223 27.9228C7.74784 27.8002 6.7064 27.9132 5.67786 27.9314C4.83269 27.9466 3.98752 27.9803 3.14267 28.0084C3.05554 28.011 2.96873 28.0295 2.88223 28.1277C9.86815 28.8064 16.8547 29.4847 23.8403 30.1637L23.8551 30.0656ZM1.83827 24.6057C2.73911 22.4113 3.63492 20.2153 4.53891 18.0229C4.6295 17.8025 4.62289 17.6535 4.44581 17.4767C4.06741 17.0984 3.71639 16.691 3.30277 16.2396L1.65427 24.788L1.71497 24.8184C1.75681 24.7477 1.80745 24.6817 1.83827 24.6057ZM19.5821 3.26443C21.1004 2.85272 22.6407 2.53154 24.1718 2.17237C24.2706 2.14891 24.3675 2.11455 24.465 2.08514L24.4502 2.0065L17.8713 2.93598C18.4894 3.21982 18.9653 3.43162 19.5821 3.26443Z" fill="#7C8B9C"/>
</svg>
