<svg width="31" height="33" viewBox="0 0 31 33" fill="none" xmlns="http://www.w3.org/2000/svg">
<g clip-path="url(#clip0)">
<path d="M15.7568 14.3162C14.3893 14.3162 13.6011 15.7242 13.6011 17.4648C13.5876 19.2318 14.4027 20.5853 15.7434 20.5853C17.0969 20.5853 17.8865 19.2455 17.8865 17.4233C17.8864 15.7242 17.1236 14.3162 15.7568 14.3162Z" fill="#7C8B9C"/>
<path d="M27.4512 11.5044H26.7187V7.79088C26.7187 7.76756 26.7151 7.74441 26.7122 7.72074C26.711 7.57342 26.6664 7.42863 26.5703 7.31388L20.6877 0.255046C20.686 0.253233 20.6842 0.252474 20.683 0.250661C20.648 0.209508 20.6071 0.175252 20.5639 0.145673C20.551 0.136671 20.5382 0.12913 20.5247 0.12118C20.4873 0.0998429 20.4476 0.0818967 20.4067 0.0689777C20.3956 0.065938 20.3857 0.0611445 20.3746 0.0581048C20.3301 0.046998 20.284 0.0401001 20.2373 0.0401001H5.78015C5.11996 0.0401001 4.5837 0.60415 4.5837 1.29704V11.5043H3.85123C2.90708 11.5043 2.14105 12.3085 2.14105 13.3009V22.643C2.14105 23.6345 2.90708 24.4394 3.85123 24.4394H4.5837V30.8345C4.5837 31.5275 5.11996 32.0914 5.78015 32.0914H25.5222C26.1817 32.0914 26.7187 31.5275 26.7187 30.8345V24.4395H27.4512C28.3959 24.4395 29.1611 23.6345 29.1611 22.6431V13.301C29.1612 12.3085 28.3959 11.5044 27.4512 11.5044ZM5.78015 1.29704H19.639V7.72763C19.639 8.07504 19.9071 8.3561 20.2373 8.3561H25.5222V11.5046H5.78015V1.29704ZM20.0409 22.076L19.4626 23.706C18.2013 23.319 17.1496 22.918 15.9664 22.3939C15.7702 22.311 15.5593 22.2693 15.3491 22.2558C13.3509 22.1183 11.4845 20.5712 11.4845 17.5338C11.4845 14.7448 13.167 12.6455 15.8088 12.6455C18.5174 12.6455 20.0018 14.7999 20.0018 17.3406C20.0018 19.4533 19.0688 20.9437 17.8992 21.4963V21.5515C18.5827 21.7584 19.3446 21.9244 20.0409 22.076ZM4.45327 21.6759L4.86104 19.936C5.40025 20.2259 6.22738 20.5156 7.08227 20.5156C8.00183 20.5156 8.48851 20.1157 8.48851 19.5085C8.48851 18.9281 8.06782 18.5967 7.00325 18.1966C5.53102 17.6578 4.57174 16.8019 4.57174 15.4483C4.57174 13.8605 5.83379 12.6454 7.92337 12.6454C8.92244 12.6454 9.65864 12.867 10.1839 13.1148L9.73754 14.8136C9.3828 14.6338 8.75199 14.3715 7.88453 14.3715C7.0165 14.3715 6.59559 14.7853 6.59559 15.2692C6.59559 15.8625 7.09513 16.1254 8.23899 16.5814C9.8031 17.189 10.539 18.0441 10.539 19.356C10.539 20.9167 9.39504 22.2417 6.96352 22.2417C5.95193 22.2411 4.95336 21.9649 4.45327 21.6759ZM25.5222 30.4939H5.78015V24.4395H25.5222V30.4939ZM26.8495 22.1033H21.3152V12.7972H23.3272V20.3363H26.8495V22.1033Z" fill="#7C8B9C"/>
</g>
<defs>
<clipPath id="clip0">
<rect width="30.5103" height="32.0513" fill="white" transform="translate(0.396088 0.0401001)"/>
</clipPath>
</defs>
</svg>
