<svg width="32" height="33" viewBox="0 0 32 33" fill="none" xmlns="http://www.w3.org/2000/svg">
<g clip-path="url(#clip0)">
<path d="M28.3791 21.7659C28.3791 21.7659 32.7286 11.4335 19.3158 2.03064C19.3158 2.03064 24.8075 9.15591 21.9816 17.1165C21.9816 17.1165 12.1269 9.9131 7.1691 4.74693C7.1691 4.74693 13.3645 13.9355 15.5879 15.8104C15.5879 15.8104 11.8905 13.8373 3.32296 6.32343C3.32296 6.32343 13.1509 19.5423 17.7846 22.3027C17.7846 22.3027 10.7731 27.2425 0.510345 20.2715C0.510345 20.2715 5.90866 30.075 17.2964 30.075C22.4163 30.075 23.917 27.3647 26.4532 27.3647C29.077 27.3647 30.6578 30.075 30.6578 30.075C32.189 26.1949 28.3791 21.7659 28.3791 21.7659Z" fill="#7C8B9C"/>
</g>
<defs>
<clipPath id="clip0">
<rect width="30.5103" height="32.0513" fill="white" transform="translate(0.510345 0.0271568)"/>
</clipPath>
</defs>
</svg>
