<svg width="32" height="33" viewBox="0 0 32 33" fill="none" xmlns="http://www.w3.org/2000/svg">
<path d="M0.818939 16.0497C0.818939 22.3909 4.3278 27.874 9.41741 30.4712L2.13986 9.52981C1.29292 11.5207 0.818939 13.7269 0.818939 16.0497Z" fill="#7C8B9C"/>
<path d="M16.3424 17.4499L11.7639 31.421C13.1303 31.8414 14.5777 32.0742 16.0731 32.0742C17.8499 32.0742 19.5544 31.7508 21.1396 31.166C21.1 31.0965 21.0618 31.0227 21.0302 30.9437L16.3424 17.4499Z" fill="#7C8B9C"/>
<path d="M26.372 15.2394C26.372 13.2591 25.6931 11.8884 25.1137 10.822C24.3405 9.50137 23.6154 8.38446 23.6154 7.06212C23.6154 5.59188 24.6786 4.21999 26.177 4.21999C26.2457 4.21999 26.3104 4.22952 26.3741 4.2327C23.6616 1.62128 20.0453 0.0250359 16.0731 0.0250359C10.7433 0.0250359 6.22195 2.85148 3.46776 7.02845C3.82534 7.04218 8.37437 7.06212 8.37437 7.06212C9.19673 7.01372 9.29396 8.28232 8.47308 8.38452C8.47308 8.38452 7.64609 8.48565 6.72637 8.53621L12.2818 25.8915L15.6197 15.3763L13.2436 8.53614C12.4218 8.48558 11.6444 8.46449 11.6444 8.46449C10.8225 8.41393 10.9187 7.22226 11.7396 7.22226H19.8246C20.6465 7.22226 20.7429 8.36228 19.9209 8.46449C19.9209 8.46449 19.0939 8.52553 18.1758 8.57616L23.6895 25.7809L25.21 20.4306C25.9844 18.3482 26.372 16.6123 26.372 15.2394Z" fill="#7C8B9C"/>
<path d="M29.4598 8.36128C29.5255 8.8734 29.5631 9.42134 29.5631 10.0103C29.5631 11.6355 29.2733 13.4625 28.4017 15.7483L23.7429 29.8991C28.2793 27.1217 31.3293 21.961 31.3293 16.0497C31.3293 13.2634 30.6513 10.644 29.4598 8.36128Z" fill="#7C8B9C"/>
</svg>
